Coordinates
version=1
nRows=13
nColumns=30
inDegrees=yes

Units are S.I. units (second, meters, Newtons, ...)
Angles are in degrees.

endheader
time	floatyaw	floatroll	floatpitch	floatx	floaty	floatz	pro_sup_l	deviation_l	flexion_l	cmc_flexion_l	cmc_abduction_l	mp_flexion_l	ip_flexion_l	2mcp_flexion_l	2mcp_abduction_l	2pm_flexion_l	2md_flexion_l	3mcp_flexion_l	3mcp_abduction_l	3pm_flexion_l	3md_flexion_l	4mcp_flexion_l	4mcp_abduction_l	4pm_flexion_l	4md_flexion_l	5mcp_flexion_l	5mcp_abduction_l	5pm_flexion_l	5md_flexion_l
-1.495000	-3.995636	-4.876138	96.430707	-0.108463	-0.183926	-0.040625	86.092778	0.640382	-3.318777	16.306393	4.791428	-21.800865	-34.287810	38.720120	9.672189	47.892032	34.323934	21.923148	5.022178	47.180708	32.917696	10.078071	-5.086023	62.093366	42.994188	1.215113	-8.293024	62.617884	43.656918
-1.485000	-3.995636	-4.876138	96.430707	-0.108455	-0.183929	-0.040651	86.096309	0.661381	-3.325413	16.305099	4.763191	-21.820599	-34.302857	38.734686	9.664205	47.893704	34.324437	21.938403	5.020497	47.181020	32.921667	10.082955	-5.086433	62.104951	43.006711	1.175972	-8.258911	62.674934	43.687888
-1.475000	-3.995636	-4.876138	96.430707	-0.108448	-0.183934	-0.040682	86.097170	0.683223	-3.330528	16.304070	4.732385	-21.838399	-34.317961	38.750659	9.655943	47.891625	34.322790	21.951043	5.020136	47.179494	32.924713	10.086989	-5.086436	62.116011	43.018722	1.135164	-8.227219	62.733562	43.718445
-1.465000	-3.995636	-4.876138	96.430707	-0.108444	-0.183942	-0.040715	86.090444	0.701872	-3.335756	16.300950	4.703619	-21.848806	-34.327458	38.767395	9.648925	47.887142	34.319061	21.962179	5.021009	47.178265	32.927144	10.091210	-5.085965	62.127593	43.029676	1.099145	-8.202287	62.785897	43.745297
-1.455000	-3.995636	-4.876138	96.430707	-0.108441	-0.183957	-0.040747	86.073753	0.714268	-3.342572	16.293813	4.681493	-21.847944	-34.326654	38.784377	9.644219	47.881080	34.312965	21.973579	5.022594	47.178701	32.928951	10.096167	-5.085190	62.140985	43.039319	1.072741	-8.185955	62.825504	43.766214
-1.445000	-3.995636	-4.876138	96.430707	-0.108438	-0.183978	-0.040775	86.047164	0.719139	-3.351537	16.281348	4.669997	-21.835434	-34.313837	38.801211	9.641778	47.873688	34.304249	21.986592	5.024240	47.180663	32.929997	10.101334	-5.084495	62.157469	43.048043	1.057541	-8.177328	62.850131	43.780784
-1.435000	-3.995636	-4.876138	96.430707	-0.108436	-0.184002	-0.040796	86.012192	0.717171	-3.362173	16.263012	4.671676	-21.815008	-34.291181	38.817769	9.640479	47.865035	34.293241	22.001314	5.025476	47.183028	32.930576	10.105232	-5.084228	62.178342	43.057070	1.051464	-8.173550	62.862570	43.790385
-1.425000	-3.995636	-4.876138	96.430707	-0.108433	-0.184029	-0.040813	85.970808	0.710476	-3.373455	16.239311	4.686613	-21.793219	-34.263935	38.834468	9.638882	47.855417	34.281123	22.016534	5.026122	47.184939	32.931788	10.106175	-5.084458	62.204890	43.068210	1.049650	-8.171019	62.869214	43.797435
-1.415000	-3.995636	-4.876138	96.430707	-0.108429	-0.184057	-0.040826	85.925188	0.701688	-3.384474	16.211979	4.711822	-21.776767	-34.238275	38.852356	9.636144	47.845476	34.269674	22.030491	5.026174	47.186791	32.935296	10.103294	-5.085021	62.237754	43.083032	1.046412	-8.166560	62.877260	43.804417
-1.405000	-3.995636	-4.876138	96.430707	-0.108424	-0.184084	-0.040838	85.878093	0.693145	-3.394711	16.183730	4.741823	-21.769864	-34.219003	38.872641	9.632419	47.836134	34.260643	22.041852	5.025634	47.190284	32.942540	10.097261	-5.085768	62.275744	43.101698	1.037602	-8.158424	62.891991	43.813078
-1.395000	-3.995636	-4.876138	96.430707	-0.108419	-0.184110	-0.040852	85.832945	0.686415	-3.403847	16.157513	4.770418	-21.772964	-34.208205	38.895857	9.628524	47.828404	34.255076	22.050248	5.024454	47.197474	32.953870	10.090115	-5.086650	62.315100	43.122290	1.022322	-8.147088	62.915188	43.823996
-1.385000	-3.995636	-4.876138	96.430707	-0.108415	-0.184133	-0.040867	85.792963	0.682155	-3.411510	16.135646	4.792706	-21.783248	-34.205255	38.921301	9.625227	47.823013	34.252860	22.056195	5.022649	47.209348	32.968114	10.084178	-5.087499	62.350287	43.141310	1.003031	-8.135488	62.944989	43.836531
-1.375000	-3.995636	-4.876138	96.430707	-0.108412	-0.184153	-0.040884	85.759937	0.680285	-3.417385	16.119299	4.806199	-21.796342	-34.207795	38.947189	9.622759	47.819818	34.252645	22.060725	5.020379	47.224805	32.982790	10.080802	-5.087833	62.376245	43.155239	0.983903	-8.128013	62.976946	43.849165
